<svg xmlns="http://www.w3.org/2000/svg" width="19.662" height="19.662" viewBox="0 0 19.662 19.662">
  <g id="Group_438" data-name="Group 438" transform="translate(-1453 1410)">
    <g id="Group_271" data-name="Group 271" transform="translate(1453 -1410)">
      <path id="Icon_awesome-user-circle" data-name="Icon awesome-user-circle" d="M9.831.563a9.831,9.831,0,1,0,9.831,9.831A9.829,9.829,0,0,0,9.831.563Zm0,3.805A3.488,3.488,0,1,1,6.342,7.856,3.488,3.488,0,0,1,9.831,4.368ZM9.831,18a7.6,7.6,0,0,1-5.807-2.7,4.42,4.42,0,0,1,3.9-2.37.97.97,0,0,1,.281.044,5.248,5.248,0,0,0,1.621.274,5.229,5.229,0,0,0,1.621-.274.97.97,0,0,1,.281-.044,4.42,4.42,0,0,1,3.9,2.37A7.6,7.6,0,0,1,9.831,18Z" transform="translate(0 -0.563)" fill="#fff"/>
    </g>
  </g>
</svg>
