<svg xmlns="http://www.w3.org/2000/svg" width="20.336" height="20.336" viewBox="0 0 20.336 20.336">
  <g id="icon-settings" transform="translate(1 1)">
    <path id="Path_134" data-name="Path 134" d="M18.5,16A2.5,2.5,0,1,1,16,13.5,2.5,2.5,0,0,1,18.5,16Z" transform="translate(-6.832 -6.832)" fill="none" stroke="#b2b2bc" stroke-linecap="round" stroke-linejoin="round" stroke-width="2"/>
    <path id="Path_135" data-name="Path 135" d="M16.835,13.168a1.375,1.375,0,0,0,.275,1.517l.05.05A1.668,1.668,0,1,1,14.8,17.094l-.05-.05a1.386,1.386,0,0,0-2.35.983v.142a1.667,1.667,0,0,1-3.334,0v-.075a1.375,1.375,0,0,0-.9-1.258,1.375,1.375,0,0,0-1.517.275l-.05.05A1.668,1.668,0,1,1,4.242,14.8l.05-.05a1.386,1.386,0,0,0-.983-2.35H3.167a1.667,1.667,0,0,1,0-3.334h.075a1.375,1.375,0,0,0,1.258-.9,1.375,1.375,0,0,0-.275-1.517l-.05-.05A1.668,1.668,0,1,1,6.534,4.242l.05.05A1.375,1.375,0,0,0,8.1,4.567h.067A1.375,1.375,0,0,0,9,3.309V3.167a1.667,1.667,0,0,1,3.334,0v.075a1.386,1.386,0,0,0,2.35.983l.05-.05a1.668,1.668,0,1,1,2.359,2.359l-.05.05A1.375,1.375,0,0,0,16.769,8.1v.067A1.375,1.375,0,0,0,18.027,9h.142a1.667,1.667,0,1,1,0,3.334h-.075a1.375,1.375,0,0,0-1.258.833Z" transform="translate(-1.5 -1.5)" fill="none" stroke="#b2b2bc" stroke-linecap="round" stroke-linejoin="round" stroke-width="2"/>
  </g>
</svg>
