<svg xmlns="http://www.w3.org/2000/svg" width="22" height="22" viewBox="0 0 22 22">
  <g id="icon-inactive-edit" transform="translate(-3567.391 1117)">
    <path id="Subtraction_4" data-name="Subtraction 4" d="M11,22A11,11,0,1,1,22,11,11.012,11.012,0,0,1,11,22Zm.845-13.668-5.4,5.4v1.83H8.274l5.4-5.4ZM13.6,6.773a.482.482,0,0,0-.344.142l-.894.894L14.2,9.641l.894-.894a.488.488,0,0,0,0-.688L13.948,6.915A.486.486,0,0,0,13.6,6.773Z" transform="translate(3567.391 -1117)" fill="#c0d6d6"/>
  </g>
</svg>
