<svg xmlns="http://www.w3.org/2000/svg" width="16.21" height="19.992" viewBox="0 0 16.21 19.992">
  <path id="navicon-activedetails" d="M17.108,4.982a1.349,1.349,0,0,0,1.351-1.351c0-.9-1.351-2.432-1.351-2.432s-1.351,1.531-1.351,2.432A1.349,1.349,0,0,0,17.108,4.982Zm-4.5,0a1.349,1.349,0,0,0,1.351-1.351c0-.9-1.351-2.432-1.351-2.432s-1.351,1.531-1.351,2.432A1.349,1.349,0,0,0,12.605,4.982Zm-4.5,0A1.349,1.349,0,0,0,9.453,3.632C9.453,2.731,8.1,1.2,8.1,1.2S6.751,2.731,6.751,3.632A1.349,1.349,0,0,0,8.1,4.982ZM18.837,7.693a1.346,1.346,0,0,0-1.279-.91H7.652a1.354,1.354,0,0,0-1.279.91L4.5,13.087v7.2a.9.9,0,0,0,.9.9h.9a.9.9,0,0,0,.9-.9v-.9H18.008v.9a.9.9,0,0,0,.9.9h.9a.9.9,0,0,0,.9-.9v-7.2L18.837,7.693Zm-11.185,9A1.351,1.351,0,1,1,9,15.339,1.349,1.349,0,0,1,7.652,16.69Zm9.906,0a1.351,1.351,0,1,1,1.351-1.351A1.349,1.349,0,0,1,17.558,16.69ZM6.3,12.187,7.652,8.134h9.906l1.351,4.053Z" transform="translate(-4.5 -1.2)" fill="#fff" opacity="0.99"/>
</svg>
