<svg xmlns="http://www.w3.org/2000/svg" width="16.221" height="20.708" viewBox="0 0 16.221 20.708">
  <path id="navicon-reports" d="M17.687,0H6.5V20.708H22.721V5.034ZM10.3,4.832h3.451a.345.345,0,0,1,0,.69H10.3a.345.345,0,0,1,0-.69Zm8.628,11.734H10.3a.345.345,0,0,1,0-.69h8.628a.345.345,0,0,1,0,.69Zm0-2.761H10.3a.345.345,0,0,1,0-.69h8.628a.345.345,0,0,1,0,.69Zm0-2.761H10.3a.345.345,0,0,1,0-.69h8.628a.345.345,0,0,1,0,.69Zm0-2.761H10.3a.345.345,0,0,1,0-.69h8.628a.345.345,0,0,1,0,.69ZM17.2,5.522V.69l4.832,4.832Z" transform="translate(-6.5)" fill="#c4d6ff"/>
</svg>
