<svg xmlns="http://www.w3.org/2000/svg" width="18.93" height="17.794" viewBox="0 0 18.93 17.794">
  <path id="navicon-washes" d="M16.28,2.954V1.44H2.65V2.954H0v16.28H1.514V4.469H2.65V5.983H16.28V4.469h1.136V19.234H18.93V2.954Zm-.359,8.708L13.451,7.45a.689.689,0,0,0-.547-.331H6.027a.688.688,0,0,0-.547.331L3.01,11.662a.75.75,0,0,0-.738.757v3.786a.75.75,0,0,0,.738.757h.777V18.1a1.093,1.093,0,0,0,1.068,1.136h.369A1.22,1.22,0,0,0,6.436,18.1V16.963h6.058V18.1a1.219,1.219,0,0,0,1.213,1.136h.369A1.093,1.093,0,0,0,15.144,18.1V16.963h.777a.75.75,0,0,0,.738-.757V12.419a.75.75,0,0,0-.738-.757ZM4.3,14.691a.947.947,0,1,1,.922-.947A.935.935,0,0,1,4.3,14.691Zm.553-3.029L6.533,8.593a.654.654,0,0,1,.534-.338h4.8a.653.653,0,0,1,.534.338l1.68,3.069H4.854Zm9.776,3.029a.947.947,0,1,1,.923-.947A.935.935,0,0,1,14.63,14.691Z" transform="translate(0 -1.44)" fill="#c4d6ff" opacity="0.99"/>
</svg>
