<svg xmlns="http://www.w3.org/2000/svg" width="18" height="17.993" viewBox="0 0 18 17.993">
  <path id="navicon-sales" d="M17.692,2.6A3.825,3.825,0,0,0,15.4.315,11.647,11.647,0,0,0,11.715,0H6.27A12.1,12.1,0,0,0,2.595.3,3.825,3.825,0,0,0,.308,2.595,11.839,11.839,0,0,0,0,6.27v5.453A12.1,12.1,0,0,0,.3,15.4a3.825,3.825,0,0,0,2.287,2.288,11.839,11.839,0,0,0,3.675.307h5.46a12.072,12.072,0,0,0,3.675-.3,3.825,3.825,0,0,0,2.3-2.295A11.839,11.839,0,0,0,18,11.723V6.285A11.867,11.867,0,0,0,17.692,2.6ZM13.065,6.075l-.7.7a.375.375,0,0,1-.5.008A3.75,3.75,0,0,0,9.45,5.895c-.727,0-1.455.24-1.455.907s.78.9,1.68,1.238c1.575.525,2.88,1.185,2.88,2.73,0,1.68-1.305,2.835-3.435,2.963l-.2.9a.367.367,0,0,1-.36.293H7.223l-.068-.008a.375.375,0,0,1-.285-.442l.21-.953a4.9,4.9,0,0,1-2.16-1.177v-.007a.36.36,0,0,1,0-.51l.75-.728a.368.368,0,0,1,.5,0,3.627,3.627,0,0,0,2.542.99c.975,0,1.628-.413,1.628-1.065s-.66-.825-1.905-1.29c-1.32-.472-2.573-1.14-2.573-2.7,0-1.815,1.508-2.7,3.293-2.782l.187-.922a.36.36,0,0,1,.36-.285H11.04l.075.007a.359.359,0,0,1,.278.428l-.2,1.027A5.629,5.629,0,0,1,13.05,5.55l.015.015a.358.358,0,0,1,0,.51Z" fill="#c4d6ff" opacity="0.99"/>
</svg>
