<svg xmlns="http://www.w3.org/2000/svg" width="20.595" height="20.928" viewBox="0 0 20.595 20.928">
  <path id="navicon-active-checkout" d="M13.183,11.455V8.667S12.19,11.181,13.183,11.455ZM19.3,2.733a11.934,11.934,0,0,1-4.782,1.3c-2.187,0-4-1.422-6.752-1.422a7.946,7.946,0,0,0-2.779.49A2.289,2.289,0,1,0,1.543,4.163v15.78a.979.979,0,0,0,.981.981h.654a.979.979,0,0,0,.981-.981V16.085a11.4,11.4,0,0,1,4.676-.9c2.191,0,4,1.422,6.752,1.422a8.54,8.54,0,0,0,5.007-1.672,1.3,1.3,0,0,0,.564-1.079V3.918A1.306,1.306,0,0,0,19.3,2.733ZM7.167,13.3a12.876,12.876,0,0,0-3.008.678V11.1a11.692,11.692,0,0,1,3.008-.711ZM19.2,7.8a13.037,13.037,0,0,1-3.008.977v2.906A7.6,7.6,0,0,0,19.2,10.625v2.881a6.6,6.6,0,0,1-3.008,1.108V11.688a6.913,6.913,0,0,1-3.008-.229v2.755a23.846,23.846,0,0,0-3.008-.871v-2.8a9.085,9.085,0,0,0-3.008-.155V7.527a14.423,14.423,0,0,0-3.008.854V5.5a11.7,11.7,0,0,1,3.008-.9V7.527a6.952,6.952,0,0,1,3.008.233V5.005a23.267,23.267,0,0,0,3.008.871v2.8a7.786,7.786,0,0,0,3.008.11V5.843a14.461,14.461,0,0,0,3.008-.92Z" transform="translate(-0.563 0.003)" fill="#fff"/>
</svg>
